<svg width="130" height="131" viewBox="0 0 130 131" fill="none" xmlns="http://www.w3.org/2000/svg">
<g clip-path="url(#clip0)">
<path d="M68.9432 122.081C68.4035 122.081 67.8858 122.295 67.5041 122.677C67.1224 123.058 66.908 123.576 66.908 124.116V128.186C66.908 128.726 67.1224 129.244 67.5041 129.625C67.8858 130.007 68.4035 130.221 68.9432 130.221C69.483 130.221 70.0007 130.007 70.3824 129.625C70.7641 129.244 70.9785 128.726 70.9785 128.186V124.116C70.9785 123.576 70.7641 123.058 70.3824 122.677C70.0007 122.295 69.483 122.081 68.9432 122.081Z" fill="#95C5D7"/>
<path d="M79.1194 122.081C78.5796 122.081 78.0619 122.295 77.6802 122.677C77.2986 123.058 77.0841 123.576 77.0841 124.116V128.186C77.0841 128.726 77.2986 129.244 77.6802 129.625C78.0619 130.007 78.5796 130.221 79.1194 130.221C79.6591 130.221 80.1768 130.007 80.5585 129.625C80.9402 129.244 81.1546 128.726 81.1546 128.186V124.116C81.1546 123.576 80.9402 123.058 80.5585 122.677C80.1768 122.295 79.6591 122.081 79.1194 122.081Z" fill="#95C5D7"/>
<path d="M89.2955 122.081C88.7557 122.081 88.238 122.295 87.8564 122.677C87.4747 123.058 87.2603 123.576 87.2603 124.116V128.186C87.2603 128.726 87.4747 129.244 87.8564 129.625C88.238 130.007 88.7557 130.221 89.2955 130.221C89.8353 130.221 90.3529 130.007 90.7346 129.625C91.1163 129.244 91.3307 128.726 91.3307 128.186V124.116C91.3307 123.576 91.1163 123.058 90.7346 122.677C90.3529 122.295 89.8353 122.081 89.2955 122.081Z" fill="#95C5D7"/>
<path d="M129.043 81.6853L101.507 64.4836V98.4373L127.712 101.712C127.999 101.748 128.289 101.722 128.565 101.637C128.841 101.552 129.095 101.409 129.312 101.218C129.528 101.027 129.701 100.793 129.82 100.53C129.938 100.267 130 99.9815 130 99.693V83.4112C130 83.066 129.912 82.7265 129.745 82.4246C129.578 82.1227 129.336 81.8683 129.043 81.6853Z" fill="#95C5D7"/>
<path d="M28.2387 83.4112V99.693C28.2388 99.9815 28.3002 100.267 28.4189 100.53C28.5377 100.793 28.7109 101.027 28.9272 101.218C29.1436 101.409 29.398 101.552 29.6737 101.637C29.9494 101.722 30.24 101.748 30.5263 101.712L56.7319 98.4373V64.4836L29.1953 81.6853C28.9026 81.8683 28.6612 82.1227 28.4939 82.4246C28.3265 82.7265 28.2387 83.066 28.2387 83.4112Z" fill="#95C5D7"/>
<path d="M95.0226 52.313C89.777 53.2843 84.4541 53.7775 79.1194 53.7865C73.7846 53.7775 68.4617 53.2843 63.2161 52.313C62.9234 52.2576 62.6221 52.2671 62.3335 52.3409C62.0449 52.4146 61.776 52.5509 61.5458 52.7399C61.3156 52.929 61.1297 53.1663 61.0013 53.435C60.8728 53.7038 60.8049 53.9975 60.8023 54.2953V103.764C60.8046 105.023 61.1973 106.25 61.9263 107.276C62.6553 108.303 63.6848 109.078 64.8728 109.495V111.904C64.8728 113.524 65.5161 115.077 66.6611 116.222C67.8061 117.367 69.3591 118.01 70.9785 118.01H87.2603C88.8796 118.01 90.4326 117.367 91.5776 116.222C92.7227 115.077 93.3659 113.524 93.3659 111.904V109.495C94.5539 109.078 95.5834 108.303 96.3124 107.276C97.0414 106.25 97.4341 105.023 97.4364 103.764V54.2953C97.4338 53.9975 97.3659 53.7038 97.2375 53.435C97.109 53.1663 96.9231 52.929 96.6929 52.7399C96.4627 52.5509 96.1938 52.4146 95.9052 52.3409C95.6166 52.2671 95.3153 52.2576 95.0226 52.313ZM73.0137 113.94H70.9785C70.4387 113.94 69.921 113.725 69.5393 113.344C69.1577 112.962 68.9432 112.444 68.9432 111.904V109.869H73.0137V113.94ZM81.1546 113.94H77.0841V109.869H81.1546V113.94ZM89.2955 111.904C89.2955 112.444 89.0811 112.962 88.6994 113.344C88.3177 113.725 87.8 113.94 87.2603 113.94H85.225V109.869H89.2955V111.904Z" fill="#95C5D7"/>
<path d="M64.0382 48.324C74.0109 50.1394 84.2295 50.1394 94.2022 48.324C94.5033 48.2648 94.7873 48.1392 95.0336 47.9563C95.28 47.7734 95.4824 47.5379 95.6261 47.2668C95.7698 46.9958 95.8512 46.696 95.8644 46.3895C95.8775 46.083 95.8221 45.7774 95.7022 45.495C92.6558 38.1963 87.0965 32.2298 80.031 28.6759C79.7464 28.5343 79.4329 28.4606 79.1151 28.4606C78.7973 28.4606 78.4838 28.5343 78.1993 28.6759C71.1334 32.2293 65.5739 38.196 62.528 45.495C62.4085 45.7782 62.3537 46.0844 62.3677 46.3914C62.3816 46.6984 62.464 46.9984 62.6087 47.2695C62.7534 47.5406 62.9569 47.776 63.2042 47.9584C63.4515 48.1409 63.7364 48.2658 64.0382 48.324Z" fill="#95C5D7"/>
<path d="M55.7669 78.2823H46.0238C45.127 78.2823 44.3999 79.0093 44.3999 79.9061C44.3999 80.8029 45.127 81.53 46.0238 81.53H55.7669C56.6637 81.53 57.3907 80.8029 57.3907 79.9061C57.3907 79.0093 56.6637 78.2823 55.7669 78.2823Z" fill="#11839C" stroke="#11839C"/>
<path d="M101.753 86.239C101.747 86.1732 101.735 86.1097 101.721 86.0474C101.718 86.0329 101.714 86.0188 101.71 86.0045C101.698 85.9549 101.683 85.9062 101.666 85.8586C101.661 85.8434 101.656 85.8285 101.65 85.8135C101.628 85.7577 101.604 85.7033 101.576 85.6507C101.574 85.6473 101.573 85.6434 101.571 85.6397C101.563 85.6241 92.5592 68.6759 92.5592 68.6759V24.4476C92.5592 23.5508 91.8322 22.8238 90.9354 22.8238C90.0386 22.8238 89.3115 23.5508 89.3115 24.4476V67.4567H12.4493V21.757C12.4493 19.0707 14.6346 16.8855 17.3208 16.8855H81.7496C82.6464 16.8855 83.3734 16.1584 83.3734 15.2616C83.3734 14.3648 82.6464 13.6378 81.7496 13.6378H17.3211C12.844 13.6378 9.20182 17.2799 9.20182 21.757V68.6759L0.19811 85.6241C0.187934 85.6434 0.186634 85.647 0.184902 85.6507C0.157405 85.7033 0.133156 85.7579 0.111504 85.8138C0.105658 85.8285 0.100462 85.8434 0.0952659 85.8584C0.0781613 85.9062 0.0636549 85.9549 0.0510971 86.0047C0.0474164 86.019 0.0433027 86.0329 0.0402715 86.0474C0.0264146 86.1097 0.0151559 86.1732 0.00866053 86.2379C0.00281467 86.2925 0 86.3466 0 86.4016V89.6493C0 94.1264 3.64219 97.7685 8.11925 97.7685H93.642C98.1191 97.7685 101.761 94.1264 101.761 89.6493V86.4016C101.761 86.3466 101.758 86.2925 101.753 86.239ZM11.8017 70.7044H89.9593L97.4358 84.7777H4.32529L11.8017 70.7044ZM93.642 94.5208H8.11925C5.43297 94.5208 3.2477 92.3356 3.2477 89.6493V88.0254H98.5136V89.6493C98.5136 92.3356 96.3283 94.5208 93.642 94.5208Z" fill="#11839C" stroke="#11839C"/>
<path d="M91.477 7.68392H96.2173L57.4608 46.4402L45.4636 34.443C44.8294 33.8088 43.8012 33.8088 43.1672 34.443L16.173 61.437C15.5388 62.0712 15.5388 63.0994 16.173 63.7334C16.49 64.0503 16.9057 64.209 17.3212 64.209C17.7367 64.209 18.1524 64.0506 18.4694 63.7334L44.3152 37.8875L56.3124 49.8847C56.9466 50.5189 57.9748 50.5189 58.6088 49.8847L98.5137 9.98026V14.7206C98.5137 15.6174 99.2407 16.3444 100.138 16.3444C101.034 16.3444 101.761 15.6174 101.761 14.7206V6.06007C101.761 5.16327 101.034 4.43622 100.138 4.43622H91.477C90.5802 4.43622 89.8531 5.16327 89.8531 6.06007C89.8531 6.95687 90.58 7.68392 91.477 7.68392Z" fill="#11839C" stroke="#11839C"/>
</g>
<defs>
<clipPath id="clip0">
<rect width="130" height="130" fill="white" transform="translate(0 0.221863)"/>
</clipPath>
</defs>
</svg>
