<svg width="130" height="131" viewBox="0 0 130 131" fill="none" xmlns="http://www.w3.org/2000/svg">
<g clip-path="url(#clip0)">
<path d="M119.562 87.9843C120.623 82.9928 120.623 77.834 119.562 72.8426L129.163 64.9409C129.527 64.6411 129.773 64.2219 129.857 63.7578C129.941 63.2938 129.858 62.815 129.622 62.4067L121.652 48.6038C121.416 48.1954 121.043 47.884 120.599 47.725C120.155 47.5659 119.669 47.5695 119.228 47.7351L107.574 52.1023C103.758 48.7218 99.3025 46.1419 94.4708 44.5155L92.4327 32.2706C92.3555 31.8061 92.1162 31.3839 91.7573 31.079C91.3984 30.7741 90.9431 30.6062 90.4722 30.605H74.5335C74.0616 30.6048 73.6049 30.772 73.2448 31.0771C72.8846 31.3821 72.6445 31.8051 72.5671 32.2706L70.5269 44.5155C65.6951 46.1401 61.2395 48.7202 57.4253 52.1023L45.7761 47.7391C45.3345 47.5735 44.8485 47.5699 44.4046 47.729C43.9606 47.888 43.5874 48.1994 43.3515 48.6078L35.3821 62.4107C35.1462 62.819 35.0628 63.2978 35.1467 63.7618C35.2306 64.2258 35.4764 64.6451 35.8403 64.9449L45.4414 72.8426C44.383 77.8343 44.383 82.9925 45.4414 87.9843L35.8503 95.8819C35.4864 96.1818 35.2406 96.601 35.1567 97.0651C35.0728 97.5291 35.1562 98.0079 35.3921 98.4162L43.3614 112.219C43.5974 112.627 43.9705 112.939 44.4145 113.098C44.8585 113.257 45.3445 113.253 45.7861 113.088L57.4353 108.725C61.2492 112.107 65.7049 114.688 70.5369 116.313L72.5771 128.556C72.6545 129.022 72.8946 129.445 73.2547 129.75C73.6148 130.055 74.0715 130.222 74.5435 130.222H90.4822C90.9538 130.222 91.41 130.054 91.7697 129.749C92.1294 129.444 92.3693 129.021 92.4466 128.556L94.4888 116.313C99.3146 114.685 103.764 112.104 107.574 108.725L119.22 113.088C119.661 113.253 120.147 113.257 120.591 113.098C121.035 112.939 121.408 112.627 121.644 112.219L129.614 98.4162C129.85 98.0079 129.933 97.5291 129.849 97.0651C129.765 96.601 129.519 96.1818 129.155 95.8819L119.562 87.9843ZM82.5029 98.3445C78.9565 98.3445 75.4897 97.2928 72.5409 95.3225C69.5922 93.3523 67.2939 90.5518 65.9368 87.2753C64.5796 83.9989 64.2245 80.3935 64.9164 76.9153C65.6083 73.437 67.316 70.242 69.8237 67.7343C72.3314 65.2266 75.5264 63.5188 79.0047 62.8269C82.483 62.1351 86.0883 62.4902 89.3648 63.8473C92.6413 65.2045 95.4417 67.5027 97.412 70.4515C99.3823 73.4002 100.434 76.867 100.434 80.4134C100.429 85.1674 98.5378 89.7252 95.1762 93.0868C91.8146 96.4483 87.2569 98.3392 82.5029 98.3445Z" fill="#95C5D7"/>
<g clip-path="url(#clip1)">
<path d="M5.08125 9.87158H94.5356C97.3374 9.87158 99.6169 12.1511 99.6169 14.9528V72.2889C99.6169 75.0907 97.3374 77.3702 94.5356 77.3702H66.2145L70.1359 85.3204H73.326C77.1142 85.3204 80.1961 88.4021 80.1961 92.1903V97.1147C80.1961 98.1893 79.3248 99.0604 78.2504 99.0604H29.9569H7.5491C3.3864 99.0604 7.62939e-06 95.3222 7.62939e-06 90.7274V44.2227V14.9528C7.62939e-06 12.1511 2.27952 9.87158 5.08125 9.87158ZM95.7256 72.2889V68.0352H37.5058V73.4791H94.5356C95.1917 73.4791 95.7256 72.9452 95.7256 72.2889ZM61.8753 77.3704H37.5056V85.3206H65.7967L61.8753 77.3704ZM76.3046 92.1903C76.3046 90.548 74.9683 89.2117 73.3258 89.2117H68.9358C68.9331 89.2117 68.9302 89.2121 68.9275 89.2121C68.9251 89.2121 68.923 89.2117 68.9207 89.2117H37.5058V90.7274C37.5058 92.3594 37.0767 93.8822 36.3393 95.1691H76.3048L76.3046 92.1903ZM3.89129 90.7274C3.89129 93.1351 5.5661 95.1691 7.5489 95.1691H29.9567C31.9393 95.1691 33.6145 93.1351 33.6145 90.7274V44.2227C33.6145 41.8149 31.9395 39.781 29.9567 39.781H27.9552V44.1563C27.9552 46.2854 26.2206 48.0176 24.0884 48.0176H13.4174C11.2851 48.0176 9.55058 46.2854 9.55058 44.1563V39.781H7.5489C5.5663 39.781 3.89129 41.8149 3.89129 44.2227V90.7274ZM24.0639 44.1264V39.7811H13.4419V44.1264H24.0639ZM3.89129 36.9366C4.97559 36.2706 6.22256 35.8899 7.5489 35.8899H29.9567C34.1194 35.8899 37.5058 39.628 37.5058 44.2229V64.1439H95.7256V14.9528C95.7256 14.3078 95.1806 13.7629 94.5356 13.7629C94.5356 13.7629 64.0509 13.7629 44.5177 13.7629C29.1167 13.7629 5.08105 13.7629 5.08105 13.7629C4.43607 13.7629 3.8911 14.3078 3.8911 14.9528V36.9366H3.89129Z" fill="#11839C"/>
<path d="M1.94554 89.2117H10.0056C11.0799 89.2117 11.9512 88.3406 11.9512 87.266C11.9512 86.1914 11.0799 85.3204 10.0056 85.3204H1.94554C0.871159 85.3204 -9.91821e-05 86.1914 -9.91821e-05 87.266C-9.91821e-05 88.3406 0.871159 89.2117 1.94554 89.2117ZM27.5 89.2117H35.56C36.6344 89.2117 37.5056 88.3406 37.5056 87.266C37.5056 86.1914 36.6344 85.3204 35.56 85.3204H27.5C26.4256 85.3204 25.5543 86.1914 25.5543 87.266C25.5543 88.3406 26.4254 89.2117 27.5 89.2117Z" fill="#11839C"/>
<path d="M18.7554 89.2117C19.8298 89.2117 20.704 88.3406 20.704 87.266C20.704 86.1914 19.8356 85.3204 18.7613 85.3204H18.7556C17.6812 85.3204 16.81 86.1914 16.81 87.266C16.81 88.3406 17.681 89.2117 18.7554 89.2117Z" fill="#11839C"/>
<path d="M76.4999 17.2219C75.1215 17.2219 74.0002 18.3432 74.0002 19.7216C74.0002 21.1001 75.1215 22.2219 76.4999 22.2219C77.8784 22.2219 79.0002 21.1001 79.0002 19.7216C79.0002 18.3432 77.8784 17.2219 76.4999 17.2219ZM76.4999 20.5179C76.0612 20.5179 75.7037 20.1608 75.7037 19.7216C75.7037 19.2829 76.0612 18.9254 76.4999 18.9254C76.9392 18.9254 77.2962 19.2829 77.2962 19.7216C77.2962 20.1608 76.9392 20.5179 76.4999 20.5179Z" fill="#11839C"/>
<path d="M83.5004 17.2219C82.1219 17.2219 81.0002 18.3432 81.0002 19.7216C81.0002 21.1001 82.1219 22.2219 83.5004 22.2219C84.8788 22.2219 86.0002 21.1001 86.0002 19.7216C86.0002 18.3432 84.8784 17.2219 83.5004 17.2219ZM83.5004 20.5179C83.0612 20.5179 82.7041 20.1608 82.7041 19.7216C82.7041 19.2829 83.0612 18.9254 83.5004 18.9254C83.9392 18.9254 84.2966 19.2829 84.2966 19.7216C84.2966 20.1608 83.9392 20.5179 83.5004 20.5179Z" fill="#11839C"/>
<path d="M90.4999 17.2219C89.1215 17.2219 88.0002 18.3432 88.0002 19.7216C88.0002 21.1001 89.1215 22.2219 90.4999 22.2219C91.8784 22.2219 93.0002 21.1001 93.0002 19.7216C93.0002 18.3432 91.8784 17.2219 90.4999 17.2219ZM90.4999 20.5179C90.0612 20.5179 89.7037 20.1608 89.7037 19.7216C89.7037 19.2829 90.0612 18.9254 90.4999 18.9254C90.9392 18.9254 91.2962 19.2829 91.2962 19.7216C91.2962 20.1608 90.9392 20.5179 90.4999 20.5179Z" fill="#11839C"/>
</g>
</g>
<defs>
<clipPath id="clip0">
<rect width="130" height="130" fill="white" transform="translate(0 0.221863)"/>
</clipPath>
<clipPath id="clip1">
<rect width="99.6169" height="99.6169" fill="white" transform="matrix(-1 0 0 1 99.6169 0.221863)"/>
</clipPath>
</defs>
</svg>
