<svg width="130" height="131" viewBox="0 0 130 131" fill="none" xmlns="http://www.w3.org/2000/svg">
<path d="M54.8438 93.6594H75.1562V116.003H54.8438V93.6594Z" fill="#95C5D7"/>
<path d="M54.8438 73.3469H115.781V81.4719H54.8438V73.3469Z" fill="#95C5D7"/>
<path d="M42.6562 63.1906V122.097C42.6563 123.713 43.2983 125.263 44.4411 126.406C45.5839 127.549 47.1338 128.191 48.75 128.191H121.875C123.491 128.191 125.041 127.549 126.184 126.406C127.327 125.263 127.969 123.713 127.969 122.097V63.1906H42.6562ZM79.2188 118.034C79.2188 118.573 79.0047 119.09 78.6238 119.471C78.2429 119.852 77.7262 120.066 77.1875 120.066H52.8125C52.2738 120.066 51.7571 119.852 51.3762 119.471C50.9953 119.09 50.7812 118.573 50.7812 118.034V91.6281C50.7812 91.0894 50.9953 90.5727 51.3762 90.1918C51.7571 89.8109 52.2738 89.5969 52.8125 89.5969H77.1875C77.7262 89.5969 78.2429 89.8109 78.6238 90.1918C79.0047 90.5727 79.2188 91.0894 79.2188 91.6281V118.034ZM117.812 120.066H85.3125C84.7738 120.066 84.2571 119.852 83.8762 119.471C83.4953 119.09 83.2812 118.573 83.2812 118.034C83.2812 117.496 83.4953 116.979 83.8762 116.598C84.2571 116.217 84.7738 116.003 85.3125 116.003H117.812C118.351 116.003 118.868 116.217 119.249 116.598C119.63 116.979 119.844 117.496 119.844 118.034C119.844 118.573 119.63 119.09 119.249 119.471C118.868 119.852 118.351 120.066 117.812 120.066ZM117.812 111.941H85.3125C84.7738 111.941 84.2571 111.727 83.8762 111.346C83.4953 110.965 83.2812 110.448 83.2812 109.909C83.2812 109.371 83.4953 108.854 83.8762 108.473C84.2571 108.092 84.7738 107.878 85.3125 107.878H117.812C118.351 107.878 118.868 108.092 119.249 108.473C119.63 108.854 119.844 109.371 119.844 109.909C119.844 110.448 119.63 110.965 119.249 111.346C118.868 111.727 118.351 111.941 117.812 111.941ZM117.812 103.816H85.3125C84.7738 103.816 84.2571 103.602 83.8762 103.221C83.4953 102.84 83.2812 102.323 83.2812 101.784C83.2812 101.246 83.4953 100.729 83.8762 100.348C84.2571 99.9671 84.7738 99.7531 85.3125 99.7531H117.812C118.351 99.7531 118.868 99.9671 119.249 100.348C119.63 100.729 119.844 101.246 119.844 101.784C119.844 102.323 119.63 102.84 119.249 103.221C118.868 103.602 118.351 103.816 117.812 103.816ZM117.812 95.6906H85.3125C84.7738 95.6906 84.2571 95.4766 83.8762 95.0957C83.4953 94.7147 83.2812 94.1981 83.2812 93.6594C83.2812 93.1206 83.4953 92.604 83.8762 92.223C84.2571 91.8421 84.7738 91.6281 85.3125 91.6281H117.812C118.351 91.6281 118.868 91.8421 119.249 92.223C119.63 92.604 119.844 93.1206 119.844 93.6594C119.844 94.1981 119.63 94.7147 119.249 95.0957C118.868 95.4766 118.351 95.6906 117.812 95.6906ZM119.844 83.5031C119.844 84.0418 119.63 84.5585 119.249 84.9394C118.868 85.3204 118.351 85.5344 117.812 85.5344H52.8125C52.2738 85.5344 51.7571 85.3204 51.3762 84.9394C50.9953 84.5585 50.7812 84.0418 50.7812 83.5031V71.3156C50.7812 70.7769 50.9953 70.2602 51.3762 69.8793C51.7571 69.4984 52.2738 69.2844 52.8125 69.2844H117.812C118.351 69.2844 118.868 69.4984 119.249 69.8793C119.63 70.2602 119.844 70.7769 119.844 71.3156V83.5031Z" fill="#95C5D7"/>
<path d="M127.969 59.1281V48.9719C127.969 47.3557 127.327 45.8057 126.184 44.6629C125.041 43.5201 123.491 42.8781 121.875 42.8781H48.75C47.1338 42.8781 45.5839 43.5201 44.4411 44.6629C43.2983 45.8057 42.6563 47.3557 42.6562 48.9719V59.1281H127.969ZM115.781 48.9719H117.812C118.351 48.9719 118.868 49.1859 119.249 49.5668C119.63 49.9477 119.844 50.4644 119.844 51.0031C119.844 51.5418 119.63 52.0585 119.249 52.4394C118.868 52.8204 118.351 53.0344 117.812 53.0344H115.781C115.243 53.0344 114.726 52.8204 114.345 52.4394C113.964 52.0585 113.75 51.5418 113.75 51.0031C113.75 50.4644 113.964 49.9477 114.345 49.5668C114.726 49.1859 115.243 48.9719 115.781 48.9719ZM105.625 48.9719H107.656C108.195 48.9719 108.712 49.1859 109.093 49.5668C109.473 49.9477 109.688 50.4644 109.688 51.0031C109.688 51.5418 109.473 52.0585 109.093 52.4394C108.712 52.8204 108.195 53.0344 107.656 53.0344H105.625C105.086 53.0344 104.57 52.8204 104.189 52.4394C103.808 52.0585 103.594 51.5418 103.594 51.0031C103.594 50.4644 103.808 49.9477 104.189 49.5668C104.57 49.1859 105.086 48.9719 105.625 48.9719ZM95.4688 48.9719H97.5C98.0387 48.9719 98.5554 49.1859 98.9363 49.5668C99.3172 49.9477 99.5312 50.4644 99.5312 51.0031C99.5312 51.5418 99.3172 52.0585 98.9363 52.4394C98.5554 52.8204 98.0387 53.0344 97.5 53.0344H95.4688C94.93 53.0344 94.4134 52.8204 94.0324 52.4394C93.6515 52.0585 93.4375 51.5418 93.4375 51.0031C93.4375 50.4644 93.6515 49.9477 94.0324 49.5668C94.4134 49.1859 94.93 48.9719 95.4688 48.9719Z" fill="#95C5D7"/>
<path d="M60.9375 2.25311H8.125C6.50884 2.25311 4.95887 2.89513 3.81607 4.03793C2.67327 5.18073 2.03125 6.7307 2.03125 8.34686V97.7219C2.03125 99.338 2.67327 100.888 3.81607 102.031C4.95887 103.174 6.50884 103.816 8.125 103.816H60.9375C62.5537 103.816 64.1036 103.174 65.2464 102.031C66.3892 100.888 67.0312 99.338 67.0312 97.7219V8.34686C67.0312 6.7307 66.3892 5.18073 65.2464 4.03793C64.1036 2.89513 62.5537 2.25311 60.9375 2.25311ZM6.09375 14.4406H62.9688V91.6281H6.09375V14.4406ZM8.125 6.31561H60.9375C61.4762 6.31561 61.9929 6.52962 62.3738 6.91055C62.7547 7.29149 62.9688 7.80814 62.9688 8.34686V10.3781H6.09375V8.34686C6.09375 7.80814 6.30776 7.29149 6.68869 6.91055C7.06962 6.52962 7.58628 6.31561 8.125 6.31561ZM60.9375 99.7531H8.125C7.58628 99.7531 7.06962 99.5391 6.68869 99.1582C6.30776 98.7772 6.09375 98.2606 6.09375 97.7219V95.6906H62.9688V97.7219C62.9688 98.2606 62.7547 98.7772 62.3738 99.1582C61.9929 99.5391 61.4762 99.7531 60.9375 99.7531Z" fill="#11839C"/>
<path d="M34.5312 65.2218C38.5487 65.2218 42.4759 64.0305 45.8163 61.7986C49.1566 59.5666 51.7602 56.3942 53.2976 52.6826C54.835 48.971 55.2372 44.8868 54.4535 40.9466C53.6697 37.0063 51.7351 33.387 48.8944 30.5462C46.0536 27.7055 42.4343 25.7709 38.494 24.9871C34.5538 24.2034 30.4696 24.6056 26.758 26.143C23.0464 27.6804 19.874 30.2839 17.642 33.6243C15.4101 36.9647 14.2188 40.8919 14.2188 44.9093C14.2247 50.2947 16.3666 55.4579 20.1747 59.2659C23.9827 63.074 29.1459 65.2159 34.5312 65.2218ZM18.4214 46.9406H25.8944C25.9671 51.4192 26.8622 55.8464 28.535 60.0015C25.8374 58.9246 23.477 57.1456 21.6987 54.849C19.9203 52.5524 18.7888 49.8219 18.4214 46.9406ZM34.5312 28.6593C35.8211 28.6593 38.7319 33.4917 39.1077 42.8781H29.9548C30.3306 33.4917 33.2414 28.6593 34.5312 28.6593ZM39.1077 46.9406C38.7319 56.327 35.8211 61.1593 34.5312 61.1593C33.2414 61.1593 30.3306 56.327 29.9548 46.9406H39.1077ZM40.5295 60.0015C42.2023 55.8464 43.0974 51.4192 43.1702 46.9406H50.6431C50.2752 49.8229 49.1425 52.5541 47.3627 54.8508C45.5828 57.1475 43.2207 58.926 40.5214 60.0015H40.5295ZM50.6411 42.8781H43.1681C43.0954 38.3995 42.2003 33.9723 40.5275 29.8172C43.2252 30.8939 45.5857 32.6728 47.3641 34.9695C49.1424 37.2661 50.2739 39.9967 50.6411 42.8781ZM28.5411 29.8172C26.8683 33.9723 25.9732 38.3995 25.9005 42.8781H18.4214C18.7893 39.9961 19.9218 37.2651 21.7013 34.9685C23.4807 32.6718 25.8423 30.8932 28.5411 29.8172Z" fill="#11839C"/>
<path d="M48.75 69.2844H20.3125C18.6963 69.2844 17.1464 69.9264 16.0036 71.0692C14.8608 72.212 14.2188 73.762 14.2188 75.3781C14.2188 76.9943 14.8608 78.5442 16.0036 79.687C17.1464 80.8298 18.6963 81.4719 20.3125 81.4719H48.75C50.3662 81.4719 51.9161 80.8298 53.0589 79.687C54.2017 78.5442 54.8438 76.9943 54.8438 75.3781C54.8438 73.762 54.2017 72.212 53.0589 71.0692C51.9161 69.9264 50.3662 69.2844 48.75 69.2844ZM48.75 77.4094H20.3125C19.7738 77.4094 19.2571 77.1954 18.8762 76.8144C18.4953 76.4335 18.2812 75.9168 18.2812 75.3781C18.2812 74.8394 18.4953 74.3227 18.8762 73.9418C19.2571 73.5609 19.7738 73.3469 20.3125 73.3469H48.75C49.2887 73.3469 49.8054 73.5609 50.1863 73.9418C50.5672 74.3227 50.7812 74.8394 50.7812 75.3781C50.7812 75.9168 50.5672 76.4335 50.1863 76.8144C49.8054 77.1954 49.2887 77.4094 48.75 77.4094Z" fill="#11839C"/>
</svg>
